<svg width="46" height="26" viewBox="0 0 46 26" fill="none" xmlns="http://www.w3.org/2000/svg">
<path d="M26 22C26 20.3431 24.6569 19 23 19C21.3431 19 20 20.3431 20 22L26 22ZM20.8787 25.1213C22.0503 26.2929 23.9497 26.2929 25.1213 25.1213L44.2132 6.02944C45.3848 4.85786 45.3848 2.95837 44.2132 1.7868C43.0416 0.615222 41.1421 0.615222 39.9706 1.7868L23 18.7574L6.02944 1.7868C4.85786 0.615224 2.95837 0.615224 1.7868 1.7868C0.615222 2.95837 0.615222 4.85787 1.7868 6.02944L20.8787 25.1213ZM20 22L20 23L26 23L26 22L20 22Z" fill="#FF0037"/>
</svg>
