<svg width="271" height="49" viewBox="0 0 271 49" fill="none" xmlns="http://www.w3.org/2000/svg">
    <path d="M92.9627 19.3827V27.3069C92.9627 27.705 92.8048 28.0867 92.5238 28.3682C92.2428 28.6496 91.8616 28.8077 91.4642 28.8077H84.5448C84.1474 28.8077 83.7662 28.6496 83.4852 28.3682C83.2042 28.0867 83.0463 27.705 83.0463 27.3069V19.3827C83.0463 16.8694 82.0495 14.4591 80.2752 12.6819C78.5009 10.9048 76.0944 9.90637 73.5851 9.90637C71.0759 9.90637 68.6694 10.9048 66.8951 12.6819C65.1207 14.4591 64.1239 16.8694 64.1239 19.3827V27.3069C64.1226 27.7045 63.9643 28.0855 63.6836 28.3667C63.4028 28.6478 63.0225 28.8064 62.6255 28.8077H55.7316C55.5318 28.8125 55.3331 28.7772 55.1472 28.704C54.9612 28.6307 54.7918 28.5209 54.6488 28.381C54.5059 28.2412 54.3923 28.0741 54.3147 27.8897C54.2372 27.7052 54.1973 27.507 54.1974 27.3069V19.3827C54.1892 16.7808 54.7113 14.2046 55.7316 11.8119C56.7107 9.51708 58.1184 7.43075 59.8792 5.66508C61.6441 3.89583 63.7353 2.48672 66.0366 1.516C68.4305 0.515272 70.9988 0 73.5928 0C76.1868 0 78.7551 0.515272 81.149 1.516C85.7904 3.47282 89.486 7.16692 91.4489 11.8119C92.4668 14.2047 92.9821 16.7818 92.9627 19.3827Z" fill="#FDFFFE" />
    <path d="M148.4 22.0053C146.429 17.353 142.723 13.6551 138.07 11.6992C135.675 10.7018 133.107 10.1884 130.514 10.1884C127.92 10.1884 125.352 10.7018 122.958 11.6992C118.323 13.6647 114.636 17.3616 112.678 22.0053C111.652 24.3947 111.13 26.9703 111.144 29.571C111.13 32.1735 111.652 34.7508 112.678 37.1418C114.64 41.7944 118.335 45.4984 122.978 47.4684C125.373 48.4658 127.941 48.9793 130.534 48.9793C133.128 48.9793 135.696 48.4658 138.09 47.4684C142.731 45.5018 146.428 41.8066 148.4 37.1623C149.396 34.7638 149.909 32.1917 149.909 29.5941C149.909 26.9964 149.396 24.4244 148.4 22.0258V22.0053ZM139.256 33.2745C138.648 34.7023 137.7 35.9593 136.495 36.936C135.29 37.9126 133.865 38.5793 132.344 38.8778C130.823 39.1764 129.252 39.0977 127.769 38.6487C126.285 38.1997 124.934 37.3939 123.832 36.3018C122.069 34.5129 121.08 32.1002 121.08 29.5864C121.08 27.0725 122.069 24.6599 123.832 22.871C125.619 21.1073 128.028 20.1187 130.537 20.1187C133.046 20.1187 135.454 21.1073 137.241 22.871C138.101 23.7429 138.785 24.7725 139.256 25.9034C139.742 27.0712 139.993 28.3238 139.993 29.589C139.993 30.8541 139.742 32.1067 139.256 33.2745Z" fill="#FDFFFE" />
    <path d="M190.372 33.1771H181.969L181.923 33.2796C181.204 34.9941 179.995 36.4575 178.448 37.4864C176.902 38.5152 175.086 39.0636 173.229 39.0627C170.719 39.0684 168.308 38.0775 166.525 36.3069C165.421 35.2107 164.604 33.8585 164.148 32.3703C163.691 30.8821 163.608 29.304 163.907 27.7761C164.205 26.2482 164.876 24.8178 165.859 23.6118C166.842 22.4058 168.107 21.4616 169.542 20.8631C171.812 19.8821 174.377 19.8375 176.68 20.739C178.982 21.6405 180.837 23.4152 181.842 25.678H190.377C190.625 25.6776 190.868 25.6158 191.086 25.498C191.304 25.3803 191.489 25.2103 191.626 25.0033C191.762 24.7963 191.845 24.5587 191.867 24.3118C191.889 24.0648 191.85 23.8162 191.753 23.5881L191.068 22.0053C189.11 17.3481 185.411 13.6422 180.763 11.6787C178.368 10.6813 175.8 10.1678 173.206 10.1678C170.613 10.1678 168.045 10.6813 165.65 11.6787C161.006 13.6502 157.308 17.3533 155.34 22.0053C154.344 24.4039 153.832 26.9759 153.832 29.5736C153.832 32.1712 154.344 34.7433 155.34 37.1418C157.308 41.7938 161.006 45.4969 165.65 47.4684C168.045 48.4658 170.613 48.9793 173.206 48.9793C175.8 48.9793 178.368 48.4658 180.763 47.4684C185.409 45.5008 189.105 41.7962 191.068 37.1418C191.357 36.4637 191.606 35.7693 191.814 35.0621C191.874 34.8404 191.882 34.6079 191.837 34.3826C191.793 34.1573 191.697 33.9453 191.558 33.7631C191.418 33.5808 191.239 33.4331 191.033 33.3315C190.827 33.2299 190.601 33.1771 190.372 33.1771Z" fill="#FDFFFE" />
    <path d="M105.431 0.184204H98.6957C97.8681 0.184204 97.1973 0.856153 97.1973 1.68505V47.4274C97.1973 48.2563 97.8681 48.9282 98.6957 48.9282H105.431C106.259 48.9282 106.93 48.2563 106.93 47.4274V1.68505C106.93 0.856153 106.259 0.184204 105.431 0.184204Z" fill="#FDFFFE" />
    <path d="M76.9761 20.863C77.3727 20.863 77.753 21.0204 78.0339 21.3008C78.3148 21.5812 78.4732 21.9616 78.4746 22.3587V29.5915C78.4918 32.1917 77.9785 34.7679 76.9659 37.1623C74.9976 41.8143 71.3003 45.5174 66.6558 47.4889C64.261 48.4863 61.6931 48.9998 59.0996 48.9998C56.5061 48.9998 53.9381 48.4863 51.5434 47.4889C46.9003 45.5188 43.2058 41.8148 41.2435 37.1623C40.2175 34.7713 39.6951 32.1939 39.7093 29.5915V1.59797C39.7092 1.39914 39.7487 1.20229 39.8253 1.01885C39.9018 0.835408 40.014 0.669038 40.1554 0.529401C40.2967 0.389764 40.4643 0.279643 40.6485 0.205435C40.8326 0.131226 41.0297 0.0944103 41.2282 0.0971247H48.1476C48.545 0.0971247 48.9262 0.255249 49.2072 0.536711C49.4882 0.818173 49.6461 1.19992 49.6461 1.59797V29.5915C49.6461 32.1047 50.6429 34.5151 52.4172 36.2922C54.1915 38.0694 56.598 39.0678 59.1073 39.0678C61.6165 39.0678 64.023 38.0694 65.7973 36.2922C67.5717 34.5151 68.5685 32.1047 68.5685 29.5915V22.3587C68.5698 21.9642 68.7261 21.5861 69.0037 21.3062C69.2813 21.0263 69.6577 20.8671 70.0516 20.863H76.9761Z" fill="#FDFFFE" />
    <path d="M228.314 37.9767C229.821 40.9116 230.692 44.132 230.871 47.4274C230.882 47.6308 230.851 47.8343 230.781 48.0254C230.711 48.2165 230.602 48.3912 230.461 48.5385C230.321 48.6859 230.152 48.8029 229.965 48.8822C229.777 48.9616 229.576 49.0016 229.372 48.9999H222.213C221.843 49.0031 221.485 48.8677 221.21 48.6204C220.934 48.373 220.761 48.0316 220.724 47.663C220.593 46.1973 220.234 44.7611 219.661 43.4064C218.94 41.6974 217.898 40.1428 216.592 38.827C215.775 38.0082 214.859 37.2942 213.866 36.7012C213.273 36.3472 212.656 36.034 212.02 35.7639C210.257 35.0163 208.36 34.6363 206.446 34.6472V47.4991C206.446 47.6962 206.407 47.8914 206.332 48.0734C206.256 48.2555 206.146 48.421 206.007 48.5604C205.868 48.6997 205.702 48.8103 205.521 48.8857C205.339 48.9611 205.144 48.9999 204.947 48.9999H197.997C197.8 48.9999 197.605 48.9611 197.424 48.8857C197.242 48.8103 197.077 48.6997 196.937 48.5604C196.798 48.421 196.688 48.2555 196.613 48.0734C196.537 47.8914 196.499 47.6962 196.499 47.4991V1.59795C196.499 1.1999 196.656 0.818155 196.937 0.536693C197.218 0.255231 197.6 0.0971069 197.997 0.0971069H204.922C205.319 0.0971069 205.7 0.255231 205.981 0.536693C206.262 0.818155 206.42 1.1999 206.42 1.59795V24.3974C208.335 24.4083 210.231 24.0283 211.994 23.2808C215.447 21.8424 218.191 19.0952 219.63 15.6382C220.204 14.2835 220.563 12.8473 220.694 11.3816C220.731 11.013 220.904 10.6716 221.179 10.4242C221.454 10.1769 221.812 10.0415 222.182 10.0447H229.342C229.545 10.043 229.747 10.083 229.934 10.1624C230.121 10.2417 230.29 10.3587 230.431 10.5061C230.571 10.6534 230.68 10.8281 230.75 11.0192C230.821 11.2103 230.851 11.4138 230.84 11.6172C230.661 14.9126 229.79 18.133 228.283 21.0679C226.602 24.3691 224.211 27.2558 221.282 29.5197C224.223 31.7818 226.625 34.6705 228.314 37.9767Z" fill="#FDFFFE" />
    <path d="M26.6217 35.7229C27.2297 36.3147 27.7143 37.0217 28.0471 37.8028C28.38 38.5838 28.5545 39.4234 28.5606 40.2726C28.5667 41.1218 28.4041 41.9637 28.0825 42.7495C27.7608 43.5352 27.2864 44.2491 26.6869 44.8496C26.0873 45.4501 25.3746 45.9252 24.5901 46.2474C23.8056 46.5696 22.965 46.7324 22.1172 46.7263C21.2693 46.7202 20.4311 46.5454 19.6513 46.212C18.8715 45.8786 18.1656 45.3933 17.5747 44.7843L1.85892 29.0434C0.66771 27.8321 0 26.2001 0 24.4999C0 22.7997 0.66771 21.1677 1.85892 19.9564L17.5747 4.19498C18.1656 3.58595 18.8715 3.10064 19.6513 2.76725C20.4311 2.43386 21.2693 2.25905 22.1172 2.25297C22.965 2.2469 23.8056 2.40968 24.5901 2.73185C25.3746 3.05403 26.0873 3.52918 26.6869 4.12968C27.2864 4.73017 27.7608 5.44404 28.0825 6.22979C28.4041 7.01553 28.5667 7.85748 28.5606 8.70669C28.5545 9.5559 28.38 10.3954 28.0471 11.1765C27.7143 11.9575 27.2297 12.6645 26.6217 13.2564L15.4063 24.4896L26.6217 35.7229Z" fill="#FF0037" />
    <path d="M270.608 24.4897C270.612 25.3357 270.448 26.1741 270.127 26.9565C269.806 27.7389 269.333 28.4499 268.737 29.0486L253.021 44.7844C251.821 45.9867 250.194 46.6624 248.496 46.6629C246.799 46.6633 245.172 45.9886 243.971 44.7869C242.771 43.5853 242.096 41.9553 242.096 40.2555C242.095 38.5557 242.769 36.9253 243.969 35.723L255.184 24.4897L243.969 13.2565C243.375 12.6612 242.903 11.9545 242.582 11.1768C242.261 10.3991 242.095 9.56563 242.096 8.72396C242.096 7.02414 242.771 5.39413 243.971 4.19252C245.172 2.9909 246.799 2.31611 248.496 2.31659C250.194 2.31707 251.821 2.99278 253.021 4.19508L268.737 19.9565C269.936 21.1594 270.609 22.7899 270.608 24.4897Z" fill="#FF0037" />
</svg>

