<svg width="332" height="60" viewBox="0 0 332 60" fill="none" xmlns="http://www.w3.org/2000/svg">
<path d="M113.832 23.7339V33.437C113.832 33.9244 113.638 34.3918 113.294 34.7365C112.95 35.0811 112.483 35.2747 111.997 35.2747H103.524C103.037 35.2747 102.571 35.0811 102.227 34.7365C101.882 34.3918 101.689 33.9244 101.689 33.437V23.7339C101.689 20.6564 100.469 17.705 98.2959 15.5289C96.1233 13.3528 93.1766 12.1302 90.104 12.1302C87.0314 12.1302 84.0847 13.3528 81.9121 15.5289C79.7394 17.705 78.5189 20.6564 78.5189 23.7339V33.437C78.5172 33.9239 78.3234 34.3904 77.9796 34.7347C77.6359 35.0789 77.1702 35.2731 76.684 35.2747H68.2426C67.9979 35.2806 67.7546 35.2374 67.5269 35.1477C67.2992 35.0579 67.0917 34.9235 66.9167 34.7523C66.7416 34.581 66.6026 34.3764 66.5076 34.1506C66.4127 33.9247 66.3638 33.6821 66.3639 33.437V23.7339C66.3539 20.5479 66.9932 17.3934 68.2426 14.4635C69.4414 11.6536 71.1652 9.09887 73.3212 6.93683C75.4824 4.7704 78.043 3.04496 80.8609 1.85632C83.7922 0.630945 86.937 0 90.1134 0C93.2897 0 96.4345 0.630945 99.3658 1.85632C105.049 4.25243 109.574 8.77582 111.978 14.4635C113.224 17.3935 113.855 20.5491 113.832 23.7339Z" fill="#FDFFFE"/>
<path d="M181.714 26.9458C179.301 21.249 174.762 16.7211 169.065 14.3261C166.132 13.1048 162.988 12.4761 159.812 12.4761C156.637 12.4761 153.492 13.1048 150.56 14.3261C144.885 16.7328 140.37 21.2596 137.973 26.9458C136.717 29.8715 136.077 33.0253 136.094 36.2099C136.077 39.3966 136.716 42.5526 137.973 45.4803C140.376 51.1773 144.899 55.7128 150.585 58.1251C153.517 59.3464 156.662 59.9751 159.837 59.9751C163.013 59.9751 166.157 59.3464 169.09 58.1251C174.772 55.717 179.299 51.1922 181.714 45.5054C182.934 42.5684 183.562 39.419 183.562 36.2381C183.562 33.0573 182.934 29.9079 181.714 26.9709V26.9458ZM170.518 40.7447C169.772 42.4931 168.612 44.0323 167.136 45.2282C165.661 46.4241 163.916 47.2405 162.054 47.606C160.191 47.9716 158.268 47.8752 156.451 47.3254C154.634 46.7756 152.979 45.789 151.631 44.4516C149.471 42.2612 148.261 39.3069 148.261 36.2287C148.261 33.1506 149.471 30.1963 151.631 28.0059C153.819 25.8462 156.768 24.6356 159.84 24.6356C162.913 24.6356 165.862 25.8462 168.05 28.0059C169.103 29.0735 169.941 30.3342 170.518 31.719C171.113 33.1489 171.419 34.6827 171.419 36.2319C171.419 37.781 171.113 39.3148 170.518 40.7447Z" fill="#FDFFFE"/>
<path d="M233.109 40.6253H222.82L222.763 40.7507C221.883 42.8501 220.402 44.6421 218.508 45.9019C216.614 47.1617 214.391 47.8332 212.118 47.8321C209.043 47.8391 206.091 46.6257 203.908 44.4576C202.556 43.1154 201.556 41.4596 200.997 39.6373C200.438 37.8151 200.337 35.8827 200.702 34.0118C201.068 32.1409 201.889 30.3893 203.093 28.9126C204.296 27.4359 205.845 26.2798 207.603 25.5468C210.382 24.3457 213.523 24.2911 216.343 25.3949C219.162 26.4988 221.433 28.6719 222.663 31.4427H233.115C233.418 31.4422 233.716 31.3665 233.983 31.2223C234.25 31.0782 234.477 30.87 234.644 30.6166C234.811 30.3631 234.912 30.0721 234.939 29.7697C234.966 29.4673 234.918 29.1629 234.799 28.8837L233.96 26.9455C231.563 21.2429 227.034 16.705 221.342 14.3007C218.41 13.0794 215.265 12.4507 212.089 12.4507C208.914 12.4507 205.769 13.0794 202.837 14.3007C197.15 16.7148 192.623 21.2492 190.212 26.9455C188.993 29.8825 188.365 33.032 188.365 36.2128C188.365 39.3936 188.993 42.543 190.212 45.48C192.623 51.1763 197.15 55.7107 202.837 58.1248C205.769 59.3461 208.914 59.9748 212.089 59.9748C215.265 59.9748 218.41 59.3461 221.342 58.1248C227.031 55.7155 231.558 51.1793 233.96 45.48C234.314 44.6496 234.619 43.7993 234.875 42.9335C234.948 42.6619 234.957 42.3772 234.903 42.1014C234.848 41.8255 234.731 41.566 234.56 41.3428C234.39 41.1196 234.17 40.9387 233.918 40.8143C233.666 40.6899 233.389 40.6252 233.109 40.6253Z" fill="#FDFFFE"/>
<path d="M129.099 0.225098H120.851C119.838 0.225098 119.017 1.04789 119.017 2.06286V58.0738C119.017 59.0888 119.838 59.9116 120.851 59.9116H129.099C130.112 59.9116 130.934 59.0888 130.934 58.0738V2.06286C130.934 1.04789 130.112 0.225098 129.099 0.225098Z" fill="#FDFFFE"/>
<path d="M94.2567 25.5464C94.7423 25.5464 95.208 25.7392 95.5519 26.0825C95.8959 26.4258 96.0899 26.8916 96.0916 27.3779V36.2343C96.1127 39.4182 95.4841 42.5728 94.2442 45.5047C91.834 51.201 87.3068 55.7354 81.6196 58.1495C78.6873 59.3708 75.5428 59.9995 72.3671 59.9995C69.1914 59.9995 66.047 59.3708 63.1147 58.1495C57.4292 55.7372 52.9054 51.2016 50.5025 45.5047C49.2461 42.5769 48.6066 39.421 48.6239 36.2343V1.95659C48.6239 1.71312 48.6721 1.47208 48.7659 1.24746C48.8597 1.02284 48.9971 0.819125 49.1701 0.64814C49.3432 0.477156 49.5484 0.342315 49.7739 0.251448C49.9994 0.160581 50.2407 0.1155 50.4838 0.118824H58.9566C59.4432 0.118824 59.9099 0.312444 60.254 0.657092C60.5981 1.00174 60.7914 1.46918 60.7914 1.95659V36.2343C60.7914 39.3118 62.012 42.2632 64.1846 44.4393C66.3572 46.6154 69.3039 47.8379 72.3765 47.8379C75.4491 47.8379 78.3958 46.6154 80.5684 44.4393C82.7411 42.2632 83.9616 39.3118 83.9616 36.2343V27.3779C83.9633 26.8948 84.1547 26.4318 84.4946 26.0891C84.8344 25.7463 85.2954 25.5514 85.7777 25.5464H94.2567Z" fill="#FDFFFE"/>
<path d="M279.568 46.5018C281.413 50.0955 282.48 54.0389 282.699 58.074C282.712 58.3231 282.675 58.5723 282.589 58.8063C282.503 59.0403 282.369 59.2542 282.198 59.4346C282.026 59.6151 281.819 59.7583 281.589 59.8555C281.36 59.9526 281.113 60.0017 280.864 59.9996H272.097C271.644 60.0034 271.206 59.8377 270.869 59.5348C270.532 59.232 270.32 58.8139 270.275 58.3626C270.114 56.5678 269.675 54.8092 268.972 53.1503C268.089 51.0577 266.814 49.1541 265.215 47.543C264.214 46.5404 263.093 45.6661 261.877 44.94C261.15 44.5065 260.395 44.123 259.616 43.7922C257.457 42.8768 255.135 42.4115 252.79 42.4248V58.1618C252.79 58.4032 252.743 58.6422 252.651 58.8651C252.559 59.0881 252.423 59.2907 252.253 59.4613C252.083 59.632 251.88 59.7674 251.658 59.8597C251.435 59.9521 251.196 59.9996 250.956 59.9996H242.445C242.204 59.9996 241.966 59.9521 241.743 59.8597C241.52 59.7674 241.318 59.632 241.148 59.4613C240.977 59.2907 240.842 59.0881 240.75 58.8651C240.658 58.6422 240.61 58.4032 240.61 58.1618V1.95642C240.61 1.46901 240.804 1.00157 241.148 0.656921C241.492 0.312273 241.959 0.118652 242.445 0.118652H250.924C251.411 0.118652 251.878 0.312273 252.222 0.656921C252.566 1.00157 252.759 1.46901 252.759 1.95642V29.8741C255.103 29.8874 257.426 29.4222 259.585 28.5068C263.812 26.7455 267.173 23.3816 268.934 19.1486C269.637 17.4898 270.077 15.7311 270.237 13.9364C270.282 13.4851 270.494 13.067 270.831 12.7641C271.168 12.4613 271.606 12.2955 272.059 12.2993H280.826C281.075 12.2972 281.322 12.3463 281.552 12.4435C281.781 12.5406 281.988 12.6839 282.16 12.8643C282.332 13.0448 282.465 13.2586 282.551 13.4926C282.638 13.7266 282.675 13.9758 282.661 14.2249C282.442 18.26 281.375 22.2035 279.53 25.7972C277.472 29.8395 274.544 33.3741 270.957 36.1463C274.558 38.9162 277.499 42.4534 279.568 46.5018Z" fill="#FDFFFE"/>
<path d="M32.5979 43.7425C33.3425 44.4672 33.9358 45.3329 34.3434 46.2893C34.751 47.2457 34.9647 48.2737 34.9721 49.3136C34.9795 50.3534 34.7805 51.3844 34.3867 52.3465C33.9928 53.3086 33.4119 54.1828 32.6778 54.9181C31.9436 55.6534 31.0709 56.2352 30.1103 56.6297C29.1497 57.0242 28.1204 57.2235 27.0822 57.2161C26.044 57.2086 25.0177 56.9946 24.0628 56.5863C23.1079 56.1781 22.2436 55.5838 21.5201 54.8381L2.27623 35.5635C0.817603 34.0803 0 32.082 0 30.0001C0 27.9182 0.817603 25.9198 2.27623 24.4366L21.5201 5.13696C22.2436 4.39121 23.1079 3.79695 24.0628 3.38872C25.0177 2.98049 26.044 2.76643 27.0822 2.75899C28.1204 2.75155 29.1497 2.95087 30.1103 3.34538C31.0709 3.73988 31.9436 4.32169 32.6778 5.05699C33.4119 5.79229 33.9928 6.66642 34.3867 7.62855C34.7805 8.59069 34.9795 9.62164 34.9721 10.6615C34.9647 11.7013 34.751 12.7293 34.3434 13.6857C33.9358 14.6421 33.3425 15.5078 32.5979 16.2325L18.8649 29.9875L32.5979 43.7425Z" fill="#FDFFFE"/>
<path d="M331.357 29.9877C331.361 31.0236 331.161 32.0501 330.768 33.0082C330.374 33.9662 329.795 34.8369 329.065 35.5699L309.821 54.8382C308.352 56.3104 306.359 57.1378 304.281 57.1384C302.203 57.139 300.21 56.3127 298.74 54.8414C297.27 53.37 296.444 51.3741 296.443 49.2927C296.443 47.2112 297.268 45.2149 298.737 43.7427L312.47 29.9877L298.737 16.2327C298.009 15.5037 297.432 14.6384 297.039 13.6861C296.645 12.7339 296.443 11.7133 296.443 10.6827C296.444 8.60126 297.27 6.60533 298.74 5.13396C300.21 3.6626 302.203 2.83633 304.281 2.83691C306.359 2.8375 308.352 3.6649 309.821 5.1371L329.065 24.4367C330.533 25.9097 331.357 27.9062 331.357 29.9877Z" fill="#FDFFFE"/>
</svg>
