<svg xmlns="http://www.w3.org/2000/svg" viewBox="0 0 195.95 174.3"><defs><style>.cls-1{fill:#ff0037;}</style></defs><g id="Camada_2" data-name="Camada 2"><g id="PRANCHETA"><path class="cls-1" d="M79.32,168.72a19.06,19.06,0,0,1-26.95,0L5.58,121.92A18.88,18.88,0,0,1,0,109.21a15.5,15.5,0,0,1,0-1.67A18.93,18.93,0,0,1,5.58,94.82L52.37,48A19.05,19.05,0,1,1,79.32,75l-33.4,33.41,33.4,33.39A19.06,19.06,0,0,1,79.32,168.72Z"/><path class="cls-1" d="M195.92,66.75a19,19,0,0,1-5.55,12.72l-46.79,46.8a19.06,19.06,0,0,1-27-26.95L150,65.93l-33.4-33.41a19.05,19.05,0,0,1,27-26.94l46.79,46.79a19,19,0,0,1,5.55,12.72A15.32,15.32,0,0,1,195.92,66.75Z"/></g></g></svg>